HIERARCHY
ROOT joint_Root
{
	OFFSET 0.0 0.0 0.0
	CHANNELS 6 Xposition Yposition Zposition Zrotation Xrotation Yrotation 
	JOINT Hips
	{
		OFFSET -17.1583 93.1646 452.98
		CHANNELS 6 Xposition Yposition Zposition Zrotation Xrotation Yrotation 
		JOINT Spine
		{
			OFFSET 15.7357 0.0 0.0
			CHANNELS 6 Xposition Yposition Zposition Zrotation Xrotation Yrotation 
			JOINT Chest
			{
				OFFSET 8.98455 -0.406207 0.0
				CHANNELS 6 Xposition Yposition Zposition Zrotation Xrotation Yrotation 
				JOINT Neck
				{
					OFFSET 16.3773 0.0 0.0
					CHANNELS 6 Xposition Yposition Zposition Zrotation Xrotation Yrotation 
					JOINT Head
					{
						OFFSET 6.45672 0.0 0.0
						CHANNELS 6 Xposition Yposition Zposition Zrotation Xrotation Yrotation 
						End Site
						{
							OFFSET 0.0 0.0 0.0
						}
					}
				}
				JOINT Shoulder_L
				{
					OFFSET 12.9942 -0.242716 4.98039
					CHANNELS 6 Xposition Yposition Zposition Zrotation Xrotation Yrotation 
					JOINT UpperArm_L
					{
						OFFSET 5.34809 0.0 0.0
						CHANNELS 6 Xposition Yposition Zposition Zrotation Xrotation Yrotation 
						JOINT LowerArm_L
						{
							OFFSET 24.3286 1.87007e-05 0.0
							CHANNELS 6 Xposition Yposition Zposition Zrotation Xrotation Yrotation 
							JOINT Hand_L
							{
								OFFSET 22.2916 0.0 0.0
								CHANNELS 6 Xposition Yposition Zposition Zrotation Xrotation Yrotation 
								End Site
								{
									OFFSET 0.0 0.0 0.0
								}
							}
						}
					}
				}
				JOINT Shoulder_R
				{
					OFFSET 12.9945 -0.242716 -4.98039
					CHANNELS 6 Xposition Yposition Zposition Zrotation Xrotation Yrotation 
					JOINT UpperArm_R
					{
						OFFSET -5.34813 0.0 0.0
						CHANNELS 6 Xposition Yposition Zposition Zrotation Xrotation Yrotation 
						JOINT LowerArm_R
						{
							OFFSET -24.3289 0.000322201 0.0
							CHANNELS 6 Xposition Yposition Zposition Zrotation Xrotation Yrotation 
							JOINT Hand_R
							{
								OFFSET -22.2915 -0.000108084 0.0
								CHANNELS 6 Xposition Yposition Zposition Zrotation Xrotation Yrotation 
								End Site
								{
									OFFSET 0.0 0.0 0.0
								}
							}
						}
					}
				}
			}
		}
		JOINT UpperLeg_L
		{
			OFFSET -2.19248 -6.46944 0.0
			CHANNELS 6 Xposition Yposition Zposition Zrotation Xrotation Yrotation 
			JOINT LowerLeg_L
			{
				OFFSET 39.0811 0.0 -1.23785e-05
				CHANNELS 6 Xposition Yposition Zposition Zrotation Xrotation Yrotation 
				JOINT Foot_L
				{
					OFFSET 40.9854 0.0 -1.26872e-05
					CHANNELS 6 Xposition Yposition Zposition Zrotation Xrotation Yrotation 
					JOINT Toes_L
					{
						OFFSET 11.7543 0.0 0.0
						CHANNELS 6 Xposition Yposition Zposition Zrotation Xrotation Yrotation 
						End Site
						{
							OFFSET 0.0 0.0 0.0
						}
					}
				}
			}
		}
		JOINT UpperLeg_R
		{
			OFFSET -2.19251 6.46944 0.0
			CHANNELS 6 Xposition Yposition Zposition Zrotation Xrotation Yrotation 
			JOINT LowerLeg_R
			{
				OFFSET -39.0811 -0.00228153 -0.0401928
				CHANNELS 6 Xposition Yposition Zposition Zrotation Xrotation Yrotation 
				JOINT Foot_R
				{
					OFFSET -40.9854 0.0 0.0
					CHANNELS 6 Xposition Yposition Zposition Zrotation Xrotation Yrotation 
					JOINT Toes_R
					{
						OFFSET -11.7543 0.0 0.0
						CHANNELS 6 Xposition Yposition Zposition Zrotation Xrotation Yrotation 
						End Site
						{
							OFFSET 0.0 0.0 0.0
						}
					}
				}
			}
		}
	}
}
MOTION
Frames:	4
Frame Time:	0.0333333
0.000000 0.000000 0.000000 0.000000 0.000000 -0.000000 1.161120 86.237100 11.938000 -83.991700 4.609280 169.335000 15.735700 0.000005 -0.000001 51.628000 85.302600 -48.082700 8.984550 -0.406207 -0.000000 -0.199697 -6.076830 7.081130 16.377300 -0.000001 -0.000001 -5.193240 6.240280 -0.969426 6.456720 -0.000001 -0.000000 0.992128 12.883800 -9.424480 12.994200 -0.242716 4.980390 -92.749200 10.312600 -74.984600 5.348090 -0.000007 -0.000001 -71.476600 -14.850500 5.119980 24.328600 0.000019 0.000005 58.303300 18.751800 -78.771300 22.291600 -0.000001 0.000005 44.972400 3.819050 26.740600 12.994500 -0.242716 -4.980390 89.279800 2.340010 -72.888000 -5.348130 -0.000001 -0.000004 -64.692500 -9.232400 17.364500 -24.328900 0.000322 -0.000009 2.100110 4.485960 -25.128700 -22.291500 -0.000108 -0.000004 50.678400 5.336250 -0.969066 -2.192480 -6.469440 -0.000000 -174.629000 -7.873890 -12.482800 39.081100 -0.000007 -0.000012 0.374519 -0.068780 79.592700 40.985400 -0.000006 -0.000013 -6.413650 -10.271300 -35.582800 11.754300 -0.000000 0.000003 0.002056 0.048909 -14.592900 -2.192510 6.469440 -0.000001 -167.073000 -2.000070 139.967000 -39.081100 -0.002282 -0.040193 0.237353 -0.222602 46.441600 -40.985400 0.000008 0.000006 2.327860 -7.045080 -73.785700 -11.754300 -0.000006 -0.000006 -0.008669 0.261077 -5.969120
0.000000 0.000000 0.000000 0.000000 0.000000 -0.000000 1.696720 83.714700 3.176110 -82.856500 4.009500 170.783000 15.735700 0.000005 -0.000001 68.878400 84.702800 -65.095300 8.984550 -0.406207 -0.000000 2.265110 -3.996250 7.640480 16.377300 -0.000001 -0.000001 -6.970470 5.460720 -0.396120 6.456720 -0.000001 -0.000000 -1.348910 11.227600 -9.701210 12.994200 -0.242716 4.980390 -93.038400 10.842100 -74.241800 5.348090 -0.000007 -0.000001 -69.402000 -17.744300 8.593080 24.328600 0.000019 0.000005 51.102600 20.199400 -74.431300 22.291600 -0.000001 0.000005 43.983500 3.818470 26.748800 12.994500 -0.242716 -4.980390 88.847600 3.804560 -73.134500 -5.348130 -0.000001 -0.000004 -67.544000 -3.608520 8.817950 -24.328900 0.000322 -0.000009 1.227710 2.420780 -26.928700 -22.291500 -0.000108 -0.000004 50.478400 5.344590 -1.220870 -2.192480 -6.469440 -0.000000 -172.381000 -7.157620 -21.432200 39.081100 -0.000007 -0.000012 0.342855 0.013601 92.270100 40.985400 -0.000006 -0.000013 -5.335580 -7.344240 -37.400700 11.754300 -0.000000 0.000003 0.002247 0.057746 -14.234500 -2.192510 6.469440 -0.000001 -165.868000 0.149447 143.166000 -39.081100 -0.002282 -0.040193 0.058180 -0.037073 55.997200 -40.985400 0.000008 0.000006 -0.448322 -5.367760 -83.780200 -11.754300 -0.000006 -0.000006 -0.007666 0.252949 -6.301110
0.000000 0.000000 0.000000 0.000000 0.000000 -0.000000 2.104200 82.894900 -5.622760 -82.359600 3.519920 171.335000 15.735700 0.000005 -0.000001 81.935300 84.534600 -77.954300 8.984550 -0.406207 -0.000000 3.129010 -1.692540 8.000320 16.377300 -0.000001 -0.000001 -7.432250 4.709210 0.022811 6.456720 -0.000001 -0.000000 -2.359000 9.348840 -11.019900 12.994200 -0.242716 4.980390 -93.207900 10.575600 -73.018300 5.348090 -0.000007 -0.000001 -66.083200 -19.808900 13.986500 24.328600 0.000019 0.000005 48.718800 21.621900 -72.073800 22.291600 -0.000001 0.000005 44.753900 3.866250 26.095200 12.994500 -0.242716 -4.980390 88.813300 4.125210 -73.935500 -5.348130 -0.000001 -0.000004 -68.373100 0.405680 3.439070 -24.328900 0.000322 -0.000009 2.972480 3.981590 -36.770300 -22.291500 -0.000108 -0.000004 49.454300 5.355250 -1.536190 -2.192480 -6.469440 -0.000000 -171.220000 -5.494820 -31.075100 39.081100 -0.000007 -0.000012 0.288257 0.045596 98.986500 40.985400 -0.000006 -0.000013 -6.149470 -2.400410 -41.614600 11.754300 -0.000000 0.000003 0.002186 0.054628 -14.361000 -2.192510 6.469440 -0.000001 -165.809000 1.031150 150.006000 -39.081100 -0.002282 -0.040193 0.004068 -0.000549 57.231800 -40.985400 0.000008 0.000006 -2.195690 -4.358550 -89.823900 -11.754300 -0.000006 -0.000006 -0.003921 0.218279 -7.714810
0.000000 0.000000 0.000000 0.000000 0.000000 -0.000000 1.965130 83.976100 -14.575500 -84.707600 2.977310 170.523000 15.735700 0.000005 -0.000001 96.324800 85.090900 -93.226200 8.984550 -0.406207 -0.000000 1.975250 0.924532 6.175410 16.377300 -0.000001 -0.000001 -7.398560 3.421480 0.613552 6.456720 -0.000001 -0.000000 -1.920090 6.578670 -11.101400 12.994200 -0.242716 4.980390 -93.043100 9.642630 -72.391400 5.348090 -0.000007 -0.000001 -61.276400 -21.922200 19.287000 24.328600 0.000019 0.000005 50.122800 23.599600 -71.506700 22.291600 -0.000001 0.000005 44.830700 3.917400 25.387600 12.994500 -0.242716 -4.980390 88.734900 4.496030 -74.267000 -5.348130 -0.000001 -0.000004 -67.402500 2.077950 2.170030 -24.328900 0.000322 -0.000009 4.313130 3.243810 -53.131300 -22.291500 -0.000108 -0.000004 50.449100 5.310690 -0.231525 -2.192480 -6.469440 -0.000000 -174.181000 -3.392880 -40.092900 39.081100 -0.000007 -0.000012 0.136627 0.020279 98.437900 40.985400 -0.000006 -0.000013 -5.118510 -2.657400 -50.044600 11.754300 -0.000000 0.000003 0.002197 0.055184 -14.338400 -2.192510 6.469440 -0.000001 -169.398000 3.442760 158.311000 -39.081100 -0.002282 -0.040193 0.002489 0.000590 51.853500 -40.985400 0.000008 0.000006 -3.078730 -1.249300 -90.839100 -11.754300 -0.000006 -0.000006 0.000635 0.156196 -10.238600
